<?xml version="1.0" encoding="UTF-8" standalone="no"?>
<svg
   xmlns:dc="http://purl.org/dc/elements/1.1/"
   xmlns:cc="http://creativecommons.org/ns#"
   xmlns:rdf="http://www.w3.org/1999/02/22-rdf-syntax-ns#"
   xmlns:svg="http://www.w3.org/2000/svg"
   xmlns="http://www.w3.org/2000/svg"
   xmlns:sodipodi="http://sodipodi.sourceforge.net/DTD/sodipodi-0.dtd"
   xmlns:inkscape="http://www.inkscape.org/namespaces/inkscape"
   version="1.0"
   width="70pt"
   height="70pt"
   viewBox="0 0 70 70"
   preserveAspectRatio="xMidYMid meet"
   id="svg821"
   sodipodi:docname="windowIcon.svg"
   inkscape:version="0.92.3 (2405546, 2018-03-11)"
   inkscape:export-filename="/home/robert7/Downloads/windowIcon100.png"
   inkscape:export-xdpi="102.86"
   inkscape:export-ydpi="102.86">
  <defs
     id="defs825" />
  <sodipodi:namedview
     pagecolor="#ffffff"
     bordercolor="#666666"
     borderopacity="1"
     objecttolerance="10"
     gridtolerance="10"
     guidetolerance="10"
     inkscape:pageopacity="0"
     inkscape:pageshadow="2"
     inkscape:window-width="1853"
     inkscape:window-height="1025"
     id="namedview823"
     showgrid="false"
     inkscape:zoom="6.33"
     inkscape:cx="39.715639"
     inkscape:cy="50.300166"
     inkscape:window-x="67"
     inkscape:window-y="27"
     inkscape:window-maximized="1"
     inkscape:current-layer="svg821"
     fit-margin-top="0"
     fit-margin-left="0"
     fit-margin-right="0"
     fit-margin-bottom="0" />
  <metadata
     id="metadata815">
Created by potrace 1.15, written by Peter Selinger 2001-2017
<rdf:RDF>
  <cc:Work
     rdf:about="">
    <dc:format>image/svg+xml</dc:format>
    <dc:type
       rdf:resource="http://purl.org/dc/dcmitype/StillImage" />
    <dc:title></dc:title>
  </cc:Work>
</rdf:RDF>
</metadata>
  <g
     id="g825"
     transform="matrix(1.0274783,0,0,1.0438161,-1.0956522,-1.8303723)">
    <rect
       inkscape:export-ydpi="130.07001"
       inkscape:export-xdpi="130.07001"
       y="1.7535391"
       x="1.0663507"
       height="67.061623"
       width="68.12796"
       id="rect827"
       style="fill:#00bcff;fill-opacity:1;fill-rule:evenodd;stroke:none;stroke-width:0.70506692;stroke-miterlimit:4;stroke-dasharray:none;stroke-opacity:1" />
    <g
       style="fill:#000071;fill-opacity:1;stroke:none;stroke-width:3.59368825;stroke-miterlimit:4;stroke-dasharray:none;stroke-opacity:1"
       id="g819"
       transform="matrix(0.07464379,0,0,-0.07585864,-1.2662817,73.996837)">
      <path
         style="fill:#000071;fill-opacity:1;stroke:none;stroke-width:3.59368825;stroke-miterlimit:4;stroke-dasharray:none;stroke-opacity:1"
         inkscape:connector-curvature="0"
         id="path817"
         d="m 335,827 c -30,-53 -31,-72 -5,-115 24,-38 24,-42 7,-42 -17,0 -57,70 -57,99 0,33 -57,28 -108,-9 L 130,730 V 455 c 0,-237 2,-276 15,-281 22,-9 41,11 75,79 38,75 38,101 0,184 -33,72 -35,83 -19,83 5,0 24,-30 41,-67 25,-56 29,-76 25,-123 -2,-30 -8,-63 -12,-72 -10,-25 35,-34 74,-14 34,18 37,29 16,66 -8,14 -14,31 -15,38 0,21 20,13 30,-12 15,-40 77,-102 123,-124 42,-20 79,-27 124,-24 21,2 20,3 -8,31 -16,16 -29,37 -29,45 0,22 6,20 38,-13 15,-15 49,-36 76,-46 49,-18 49,-18 68,5 12,15 18,39 18,72 v 50 l -30,-7 c -43,-9 -38,11 8,34 109,56 150,183 91,280 -24,39 -34,34 -43,-21 -10,-60 -32,-101 -65,-121 -32,-19 -81,-23 -81,-7 0,6 9,10 20,10 11,0 20,7 20,15 0,23 -33,85 -44,85 -6,-1 -26,-14 -45,-30 -25,-22 -38,-27 -51,-20 -22,12 -44,46 -59,91 -6,20 -23,46 -36,59 -21,19 -23,29 -19,64 5,36 2,47 -21,74 -15,18 -33,32 -40,32 -8,0 -26,-20 -40,-43 z" />
    </g>
  </g>
</svg>
